<?xml version = "1.0" encoding = "UTF-8" standalone = "no"?>
<!doctype svg PUBLIC "-//W3C//DTD SVG 1.0//EN"
	"http://www.w3.org/TR/2001/REC-SVG-20010904/DTD/svg10.dtd"><svg
   xmlns:svg = "http://www.w3.org/2000/svg"
   xmlns = "http://www.w3.org/2000/svg"
   version = "1.0"
   width = "242.85899"
   height = "149.99969"
   id = "svg2630">
  <defs
     id = "defs2632" />
  <g
     transform = "translate(-399.5235,4451.5659)"
     id = "layer1">
    <path
       d = "M 441.4875,-4451.5659 L 399.5235,-4401.5661 L 442.3815,-4401.5661 L 458.3805,-4420.6137 L 583.5285,-4420.6137 L 599.5245,-4401.5661 L 642.3825,-4401.5661 L 600.4185,-4451.5659 L 599.5245,-4451.5659 L 557.5605,-4451.5659 L 484.3455,-4451.5659 L 442.3815,-4451.5659 L 441.4875,-4451.5659 z M 470.9535,-4392.042 L 470.9535,-4361.0898 L 570.9525,-4361.0898 L 570.9525,-4392.042 L 470.9535,-4392.042 z M 399.5235,-4351.566 L 441.4875,-4301.5662 L 442.3815,-4301.5662 L 484.3455,-4301.5662 L 557.5605,-4301.5662 L 599.5245,-4301.5662 L 600.4185,-4301.5662 L 642.3825,-4351.566 L 599.5245,-4351.566 L 583.5285,-4332.5184 L 458.3805,-4332.5184 L 442.3815,-4351.566 L 399.5235,-4351.566 z"
       id = "rect2880"
       style = "fill:#000000;fill-opacity:1;stroke:none;stroke-width:6;stroke-linecap:butt;stroke-linejoin:round;stroke-miterlimit:4;stroke-dasharray:none;stroke-dashoffset:3.59999982;stroke-opacity:1" />
  </g>
</svg>
