<?xml version = "1.0" encoding = "UTF-8" standalone = "no"?>
<!doctype svg PUBLIC "-//W3C//DTD SVG 1.0//EN"
	"http://www.w3.org/TR/2001/REC-SVG-20010904/DTD/svg10.dtd"><svg
   xmlns:svg = "http://www.w3.org/2000/svg"
   xmlns = "http://www.w3.org/2000/svg"
   version = "1.0"
   width = "225"
   height = "149.99969"
   id = "svg2821">
  <defs
     id = "defs2823" />
  <g
     transform = "translate(-365.59579,1853.7089)"
     id = "layer1">
    <path
       d = "M 461.68879,-1853.7089 L 461.68879,-1813.133 C 436.02379,-1810.6661 406.26079,-1810.043 365.59579,-1809.1778 L 365.59579,-1804.4903 L 365.59579,-1778.7092 L 365.59579,-1703.7092 L 398.40979,-1703.7092 L 588.24979,-1703.7092 L 588.24979,-1736.5217 L 494.49979,-1736.5217 L 494.49979,-1787.2787 C 523.82479,-1793.1323 551.40079,-1803.6431 590.59579,-1823.2403 L 590.59579,-1853.7089 C 551.40079,-1834.1114 523.82479,-1823.6012 494.49979,-1817.747 L 494.49979,-1853.7089 L 461.68879,-1853.7089 z M 461.68879,-1782.6641 L 461.68879,-1736.5217 L 398.40979,-1736.5217 L 398.40979,-1779.4415 C 423.04879,-1780.0565 443.55379,-1780.9208 461.68879,-1782.6641 z"
       id = "rect3550"
       style = "fill:#000000;fill-opacity:1;stroke:none;stroke-width:6;stroke-linecap:butt;stroke-linejoin:round;stroke-miterlimit:4;stroke-dasharray:none;stroke-dashoffset:3.59999982;stroke-opacity:1" />
  </g>
</svg>
